<svg xmlns:dc="http://purl.org/dc/elements/1.1/" xmlns:cc="http://creativecommons.org/ns#" xmlns:rdf="http://www.w3.org/1999/02/22-rdf-syntax-ns#" xmlns:svg="http://www.w3.org/2000/svg" xmlns="http://www.w3.org/2000/svg" xmlns:sodipodi="http://sodipodi.sourceforge.net/DTD/sodipodi-0.dtd" xmlns:inkscape="http://www.inkscape.org/namespaces/inkscape" version="1.0" width="200.00203" height="130.28529" viewBox="-1.6518765 -1.6518765 17.154608 11.182751" id="svg9953" inkscape:version="0.47 r22583" sodipodi:docname="AFC_Logo.svg">
  <metadata id="metadata8">
    <rdf:RDF>
      <cc:Work rdf:about="">
        <dc:format>image/svg+xml</dc:format>
        <dc:type rdf:resource="http://purl.org/dc/dcmitype/StillImage"/>
      </cc:Work>
    </rdf:RDF>
  </metadata>
  <sodipodi:namedview pagecolor="#ffffff" bordercolor="#666666" borderopacity="1" objecttolerance="10" gridtolerance="10" guidetolerance="10" inkscape:pageopacity="0" inkscape:pageshadow="2" inkscape:window-width="1280" inkscape:window-height="714" id="namedview6" showgrid="false" inkscape:zoom="0.34705882" inkscape:cx="492.39305" inkscape:cy="394.51742" inkscape:window-x="-4" inkscape:window-y="-4" inkscape:window-maximized="1" inkscape:current-layer="svg9953"/>
  <defs id="defs9955">
    <inkscape:perspective sodipodi:type="inkscape:persp3d" inkscape:vp_x="0 : 340 : 1" inkscape:vp_y="0 : 1000 : 0" inkscape:vp_z="1024 : 340 : 1" inkscape:persp3d-origin="512 : 226.66667 : 1" id="perspective10"/>
  </defs>
  <path d="m 12.241563,-1.3028135 c 1.186057,0.290164 2.062652,1.364778 2.062652,2.640194 0,0.767433 -0.319615,1.454899 -0.831407,1.948412 1.054044,-0.913657 1.084764,-2.112662 0.951993,-2.710006 -0.01015,-0.04595 0.0071,-0.05154 0.05077,-0.02539 0.149274,0.08911 0.405422,0.274428 0.514076,0.355411 0.02793,0.02057 0.0457,-0.0041 0.02539,-0.02539 -0.142672,-0.151048 -0.299561,-0.314285 -0.399837,-0.456957 -0.03503,-0.05001 -0.02437,-0.06397 0.02539,-0.07616 0.2135,-0.05255 0.675026,-0.1018 0.812367,-0.11424 0.0429,-0.0038 0.03935,-0.03605 0,-0.03808 -0.152574,-0.0081 -0.745092,-0.05915 -0.913913,-0.08885 -0.03046,-0.0051 -0.04265,-0.02133 -0.01904,-0.05712 0.113226,-0.170853 0.416846,-0.519407 0.495037,-0.596581 0.03732,-0.03706 0.01218,-0.05839 -0.02539,-0.03173 -0.124903,0.0886 -0.468888,0.320885 -0.615622,0.393491 -0.04366,0.02158 -0.05814,0.02056 -0.06981,-0.02539 -0.03503,-0.138608 -0.0853,-0.553933 -0.0952,-0.723515 -0.0028,-0.04164 -0.04265,-0.04062 -0.04443,-0.0063 -0.0074,0.153076 -0.04214,0.576273 -0.07616,0.704475 -0.01422,0.05331 -0.03783,0.04925 -0.06347,0.01269 -0.1805,-0.257165 -0.762864,-0.903504 -1.783401,-1.078926 z m -0.698127,0.05712 c -0.02767,0.05331 -0.05306,0.130995 -0.08885,0.234825 0.226702,0.09545 0.467619,0.227463 0.729861,0.39349 0.282554,-0.05382 0.519661,-0.08047 0.723515,-0.08251 -0.01371,-0.08809 -0.02792,-0.136834 -0.05712,-0.209439 -0.391459,-0.211723 -0.793835,-0.337133 -1.307403,-0.336371 z m -0.06981,0.0063 c -0.50316,0.03529 -0.897665,0.161712 -1.301057,0.425225 0.09063,0.02462 0.218324,0.07514 0.355411,0.139625 0.247266,-0.106368 0.546317,-0.210962 0.799674,-0.279251 0.06093,-0.130491 0.08784,-0.184053 0.145972,-0.285599 z m 0.0063,0.330025 c -0.270366,0.06575 -0.527785,0.142671 -0.799674,0.253865 -0.07895,0.215281 -0.159681,0.458987 -0.247518,0.748901 0.206645,0.15282 0.432585,0.321647 0.698127,0.526769 0.331041,-0.130736 0.653703,-0.244472 0.964687,-0.342717 0.03808,-0.305909 0.06677,-0.564088 0.08885,-0.786981 -0.25031,-0.16273 -0.484628,-0.294991 -0.704474,-0.399837 z m 1.554922,0.126932 c 0.0013,0.0076 0.0046,0.01599 0.0063,0.02539 0.01498,0.01193 0.02996,0.02615 0.04443,0.03808 0.01269,0.0038 0.02564,0.0025 0.03808,0.0063 -0.0013,-0.0099 -0.0036,-0.01168 -0.0063,-0.01904 -0.01498,-0.01244 -0.02919,-0.02589 -0.04443,-0.03808 -0.01244,-0.0036 -0.02488,-0.01066 -0.03808,-0.01269 z m -2.919445,0.01269 c -0.2145163,0.153586 -0.3876523,0.315047 -0.5204233,0.482344 -0.05636,0.129978 -0.08758,0.209692 -0.13328,0.361757 0.07311,0.07718 0.164505,0.170343 0.285599,0.285598 0.182784,-0.111699 0.3848583,-0.217055 0.6092753,-0.323678 0.06448,-0.225182 0.129217,-0.41583 0.196745,-0.590235 -0.144449,-0.08809 -0.327485,-0.175167 -0.437916,-0.215786 z m 2.868672,0.08251 c -0.02869,0.0076 -0.05636,0.02107 -0.08885,0.03173 0.02665,0.04062 0.05027,0.07895 0.07616,0.120586 0.04874,0.0127 0.09368,0.02437 0.139626,0.03808 0.001,-0.03351 5.07e-4,-0.06626 0,-0.0952 -0.04316,-0.03351 -0.08174,-0.06448 -0.126932,-0.0952 z m 0.184051,0.01904 c 0.0025,0.01625 0.0038,0.03249 0.0063,0.05077 0.02437,0.02285 0.05204,0.04087 0.07616,0.06347 0.02158,0.0053 0.04265,0.01396 0.06347,0.01904 -0.0036,-0.01828 -0.0086,-0.03427 -0.01269,-0.05077 -0.02463,-0.02133 -0.04519,-0.04189 -0.06981,-0.06347 -0.02006,-0.0053 -0.04138,-0.01269 -0.06347,-0.01904 z m -0.437916,0.05077 c -0.134803,0.01548 -0.277475,0.03808 -0.437918,0.06981 -0.0066,0.113479 -0.01447,0.232793 -0.02539,0.368103 0.144194,0.136328 0.283059,0.273666 0.425224,0.425224 0.17872,-0.04824 0.332308,-0.082 0.475996,-0.114239 -0.0053,-0.160691 -0.01625,-0.302353 -0.03173,-0.431571 -0.134041,-0.113981 -0.263004,-0.2168 -0.406184,-0.317331 z m 0.533116,0.145973 c 0.01345,0.08758 0.03021,0.169327 0.04443,0.260211 0.08276,0.05738 0.132263,0.09368 0.222131,0.158666 0.02945,-0.04849 0.04747,-0.09596 0.06981,-0.139626 -0.05103,-0.08479 -0.07971,-0.132264 -0.139625,-0.215785 -0.05357,-0.01853 -0.125156,-0.04037 -0.196745,-0.06347 z m -3.7889333,0.342717 c -0.22797,0.332817 -0.385112,0.718184 -0.437916,1.136045 0.05509,-0.04164 0.08962,-0.06245 0.139626,-0.101546 0.05585,-0.358197 0.141148,-0.657764 0.29829,-1.034499 z m 3.7571993,0.253865 c 0.0015,0.02768 0.0048,0.05356 0.0063,0.08251 0.02462,0.01752 0.05204,0.03199 0.07616,0.05077 0.01473,-0.01879 0.02412,-0.03351 0.03808,-0.05077 -0.01549,-0.02843 -0.02843,-0.05585 -0.04443,-0.08251 -0.02462,0 -0.05001,-7.62e-4 -0.07616,0 z m -2.906751,0.01904 c -0.136833,0.06601 -0.265289,0.128201 -0.3871443,0.196745 -0.03833,0.141407 -0.06931,0.280774 -0.101546,0.43157 0.08885,0.08555 0.1804983,0.175421 0.2855983,0.272905 0.132007,-0.06321 0.27062,-0.124902 0.418877,-0.190399 0.03173,-0.164752 0.06067,-0.315808 0.0952,-0.46965 -0.112713,-0.08631 -0.212738,-0.166027 -0.310984,-0.241171 z m 2.208623,0.07616 c -0.245487,0.07438 -0.507983,0.160697 -0.793327,0.260212 0.02183,0.287377 0.04468,0.591251 0.06347,0.913913 0.30743,0.08174 0.589474,0.156634 0.856793,0.228478 0.151814,-0.258428 0.288645,-0.500367 0.406184,-0.729861 -0.166535,-0.229242 -0.343732,-0.454418 -0.533116,-0.672742 z m -2.9511773,0.114239 c -0.09165,0.04493 -0.149273,0.08301 -0.247519,0.139626 -0.03224,0.113991 -0.0589,0.241933 -0.07616,0.380797 0.06855,0.07006 0.125156,0.120332 0.196746,0.190399 0.08987,-0.04646 0.178467,-0.08809 0.272904,-0.133279 0.02666,-0.130743 0.04341,-0.239649 0.06981,-0.361758 -0.07083,-0.07362 -0.147496,-0.144956 -0.215785,-0.215785 z m 1.2820163,0.165012 c -0.06829,0.02818 -0.135818,0.05483 -0.203092,0.08251 -0.01345,0.07134 -0.02462,0.136833 -0.03808,0.209438 0.05153,0.04265 0.09723,0.08834 0.152319,0.133279 0.06728,-0.02869 0.138865,-0.06067 0.209439,-0.08885 0.0132,-0.07413 0.02412,-0.138102 0.03808,-0.209438 -0.05509,-0.0424 -0.105608,-0.08606 -0.158666,-0.126933 z m 2.589422,0.06347 c -0.02158,0.0038 -0.04722,0.0081 -0.06981,0.01269 -0.0041,0.02792 -0.0041,0.05433 -0.0063,0.08251 0.01777,0.02437 0.03173,0.04646 0.05077,0.06981 0.02234,-0.0046 0.0424,-0.0086 0.06347,-0.01269 0.0033,-0.02817 0.0089,-0.05433 0.01269,-0.08251 -0.01701,-0.02335 -0.03224,-0.04544 -0.05077,-0.06981 z m 0.06347,0.184052 c -0.01396,0.06067 -0.03326,0.11957 -0.05077,0.184052 0.04417,0.05051 0.08631,0.103069 0.126931,0.152318 0.04189,-0.03453 0.07591,-0.06372 0.11424,-0.0952 -0.01599,-0.06677 -0.02666,-0.136833 -0.04443,-0.203092 -0.04671,-0.0132 -0.09291,-0.02564 -0.145972,-0.03808 z m -2.85598,0.158665 c -0.176943,0.07615 -0.330277,0.149527 -0.488689,0.222132 0.003,0.190138 0.01142,0.374196 0.02539,0.564849 0.160443,0.0556 0.324186,0.107385 0.50773,0.165012 0.09799,-0.161962 0.201569,-0.3219 0.310984,-0.495036 -0.125155,-0.160189 -0.24371,-0.308954 -0.355411,-0.456957 z m -1.4343353,0.05077 c -0.06981,0.04341 -0.125918,0.08301 -0.190399,0.126932 -0.0096,0.104341 -0.01955,0.199538 -0.01904,0.304638 0.06727,0.05432 0.114747,0.08784 0.171359,0.126933 0.0726,-0.03884 0.118301,-0.06474 0.184052,-0.101546 0.0058,-0.09976 0.0061,-0.18786 0.01269,-0.291945 -0.05788,-0.06118 -0.104338,-0.115001 -0.158665,-0.165012 z m 4.4997533,0.08251 c -0.03199,0.03072 -0.06093,0.06271 -0.0952,0.0952 0.01498,0.06093 0.02564,0.11754 0.03808,0.177706 0.04265,0.0036 0.08073,0.0033 0.120586,0.0063 0.01193,-0.05662 0.02234,-0.109923 0.03173,-0.165012 -0.0297,-0.03808 -0.06144,-0.07413 -0.0952,-0.114239 z m -0.260211,0.330024 c -0.03503,0.02006 -0.06956,0.04189 -0.107893,0.06347 -0.0053,0.05153 -0.01218,0.100276 -0.01904,0.152318 0.03376,0.03022 0.06499,0.05991 0.0952,0.08885 0.0358,-0.02132 0.06677,-0.04163 0.101546,-0.06347 0.0056,-0.05002 0.0084,-0.102308 0.01269,-0.152319 -0.02869,-0.03072 -0.04976,-0.05814 -0.0825,-0.08885 z m -4.4426343,0.0952 c 0.02336,0.548094 0.241933,1.104058 0.552155,1.472415 l 0.152319,-0.101546 0.0063,-0.80602 c -0.276713,-0.202077 -0.455941,-0.323174 -0.710821,-0.564849 z m 4.2839683,0.171358 c -0.08606,0.07768 -0.172374,0.159174 -0.266558,0.241172 0.02894,0.122115 0.05458,0.236348 0.07616,0.349064 0.108144,-0.01117 0.205123,-0.02488 0.298292,-0.03808 0.04138,-0.11525 0.07286,-0.231778 0.107892,-0.349064 -0.06905,-0.0655 -0.137341,-0.131248 -0.215785,-0.203092 z m 0.39349,0.120586 c -0.03249,0.01498 -0.06423,0.02869 -0.101546,0.04443 -0.01269,0.04951 -0.03072,0.09672 -0.04443,0.145973 0.02158,0.03377 0.04747,0.0688 0.06981,0.101546 0.03504,-0.01701 0.06296,-0.03453 0.0952,-0.05077 0.01447,-0.04747 0.03148,-0.09139 0.04443,-0.139626 -0.01929,-0.03224 -0.04062,-0.06702 -0.06347,-0.101546 z m -1.250284,0.06347 c -0.0424,0.02361 -0.08327,0.04646 -0.126932,0.06981 0.0043,0.05052 0.0084,0.09622 0.01269,0.145972 0.04773,0.02665 0.08835,0.05153 0.133279,0.07616 0.04189,-0.02387 0.08708,-0.04595 0.126932,-0.06981 -0.0018,-0.04824 -0.0038,-0.09698 -0.0063,-0.145972 -0.04519,-0.02665 -0.09292,-0.04976 -0.139626,-0.07616 z m -1.796093,0.101546 c -0.02843,0.05306 -0.05103,0.1018 -0.07616,0.152319 0.04113,0.04595 0.0787,0.08809 0.120585,0.133279 0.05204,-0.02082 0.104847,-0.04087 0.158666,-0.06347 -0.0089,-0.06117 -0.01625,-0.123125 -0.02539,-0.184052 -0.0594,-0.01498 -0.120332,-0.02259 -0.177705,-0.03808 z m 1.935719,0.285598 c -0.04722,0.0084 -0.09215,0.01574 -0.139626,0.02539 -0.01193,0.04773 -0.01879,0.09444 -0.03173,0.139625 0.04163,0.02031 0.07362,0.03681 0.114239,0.05712 0.03656,-0.03453 0.07134,-0.06778 0.107893,-0.101546 -0.01625,-0.04061 -0.03377,-0.07946 -0.05077,-0.120586 z m 0.196745,0.06981 c -0.05153,0.05129 -0.10053,0.101292 -0.152319,0.152319 0.01092,0.06474 0.02209,0.122109 0.03173,0.184052 0.06042,0.01167 0.114493,0.02209 0.171358,0.03173 0.05052,-0.04798 0.09799,-0.09672 0.145973,-0.145972 -0.0071,-0.06068 -0.0086,-0.119317 -0.01904,-0.184052 -0.05534,-0.0127 -0.117285,-0.02386 -0.177705,-0.03808 z M 0.90015475,7.7665065 c -0.3219005,0 -0.7486472,0.141146 -1.1296983,0.33637 -0.3617573,0.186337 -0.51559933,0.336373 -0.52042276,0.349065 -0.00787,0.02183 0.0319849,0.03808 0.050773,0.03808 0.0159935,0 0.0253865,-0.0033 0.0634662,-0.03808 0.2002993,-0.186337 0.5262617,-0.336621 0.666395,-0.399838 0.00711,0.299815 -0.059914,0.617649 -0.1777053,0.9393 -0.039603,0.107395 -0.1787208,0.437927 -0.3046377,0.437927 0,0 -0.085043,0.05711 -0.01904,0.07616 0.1744051,0.05027 0.3896825,-0.425742 0.4315702,-0.539473 0.1629811,-0.445025 0.1914139,-0.819474 0.1967451,-0.964686 0.1858291,-0.07565 0.4803122,-0.152317 0.6917816,-0.152319 0.1040844,0 0.112464,0.03808 0.1078924,0.07616 -0.00254,0.01549 -0.00635,0.03809 0.012693,0.03808 0.028433,0 0.12947101,-0.09215 0.13962561,-0.120586 0.025894,-0.0693 -0.14292381,-0.07616 -0.20943841,-0.07616 z m 3.50968055,0 c -0.3472871,0 -0.7232608,0.115005 -1.0916185,0.266558 -0.285598,0.116777 -0.6455762,0.310988 -0.6663951,0.368104 -0.00711,0.01853 0.0033,0.05078 0.031733,0.05077 0.012693,0 0.027671,-0.0066 0.082506,-0.04443 0.3241854,-0.230509 1.0944132,-0.558496 1.6374279,-0.558502 0.091391,0 0.1868424,0.01016 0.1777053,0.0952 -0.00889,0.06651 -0.00964,0.06347 0.00635,0.06347 0.028433,0 0.122111,-0.05407 0.1396257,-0.101546 0.014724,-0.04113 -0.036812,-0.08301 -0.044426,-0.08885 -0.057373,-0.04138 -0.1622196,-0.05077 -0.2729046,-0.05077 z m 7.4953577,0.03173 c -0.01574,0 -0.118555,0.04163 -0.133279,0.08251 -0.0071,0.01929 -0.02209,0.127444 -0.02539,0.152319 -0.02564,0.0094 -0.06727,0.02844 -0.08251,0.04443 -0.0053,0.0061 -0.01498,0.04138 -0.01904,0.05077 -0.049,0.135564 -0.551903,0.910109 -1.199511,1.33279 -0.0038,0.0036 -0.06245,0.0353 -0.06347,0.03808 -0.0079,0.02234 0.03529,0.03172 0.06347,0.03174 0.03757,0 0.06499,-0.0066 0.139625,-0.06349 0.11297,-0.0853 0.304131,-0.242938 0.56485,-0.514066 0.08174,-0.05991 0.34754,-0.200305 0.533116,-0.285597 0.0013,0.211215 0.0089,0.786991 0.35541,0.786991 0.161458,0 0.263512,-0.113996 0.272905,-0.139646 0.0033,-0.0091 -0.0033,-0.02539 -0.01904,-0.02539 -0.01244,0 -0.016,0.0028 -0.06347,0.0381 -0.02716,0.02181 -0.08276,0.05075 -0.145972,0.05077 -0.154604,0 -0.293977,-0.237881 -0.285597,-0.767951 0.08505,-0.03453 0.308955,-0.126926 0.545808,-0.171359 0.05407,-0.0094 0.08327,-0.01904 0.0952,-0.05077 0.0058,-0.01574 0,-0.03173 -0.03173,-0.03173 -0.06321,0 -0.333579,0.06067 -0.609275,0.184052 0.0231,-0.312761 0.08174,-0.628567 0.114239,-0.717168 0.0036,-0.0091 0.0096,-0.02538 -0.0063,-0.02539 z M 0.91919455,8.0457575 c -0.019294,0 -0.108908,0.02538 -0.1269323,0.05712 -0.054835,0.09774 -0.5496153,1.235063 -0.5965823,1.364513 -0.010409,0.02843 0.0099,0.03174 0.044426,0.03174 0.044426,0 0.051281,-0.0036 0.1269323,-0.107903 0.1949682,-0.255388 0.2294938,-0.300312 0.4696499,-0.602919 -0.096976,0.290422 -0.1005325,0.577553 0.044426,0.577533 0.066512,0 0.15790385,-0.05685 0.17135865,-0.09519 0.00609,-0.01548 -0.00939,-0.01905 -0.01904,-0.01903 -0.00914,0 -0.019546,0.003 -0.044426,0.01903 -0.024625,0.01548 -0.041126,0.02539 -0.063466,0.02539 -0.069305,0 -0.053565,-0.206646 -0.050773,-0.222122 0.00609,-0.120342 0.031479,-0.229252 0.082506,-0.368114 0.0066,-0.01904 0.0543271,-0.114493 0.05712,-0.120585 0.00102,-0.0033 -0.0033,-0.01269 -0.01904,-0.01269 -0.00939,0 -0.063464,0.0061 -0.095199,0.03173 -0.05255,0.04087 -0.4747272,0.606727 -0.5585026,0.723525 0.027925,-0.05991 0.1586676,-0.362531 0.1903987,-0.43158 0.1982684,-0.429539 0.2388868,-0.499612 0.3681039,-0.748901 l 0.031733,-0.07616 c 0.00711,-0.01904 -0.00685,-0.02539 -0.012693,-0.02539 z m 2.97021795,0 c -0.019294,0 -0.1043364,0.01878 -0.133279,0.03808 -0.03681,0.02183 -0.2401561,0.514584 -0.266558,0.577542 -0.09063,0.03173 -0.1820231,0.06042 -0.2855979,0.101546 -0.1919218,0.07565 -0.1906524,0.07972 -0.1967452,0.0952 -0.00457,0.01295 2.539e-4,0.04442 0.01904,0.04443 0.00355,0 0.125663,-0.04772 0.1396256,-0.05077 0.04468,-0.01904 0.1931911,-0.07946 0.2855978,-0.107893 -0.1287094,0.324957 -0.3064127,0.774277 -0.076159,0.774277 0.025386,0 0.1172855,-0.0066 0.133279,-0.05077 0.00787,-0.02208 -0.0066,-0.02537 -0.069813,-0.02539 -0.1452107,0 -0.00533,-0.378238 0.044426,-0.514066 0.032241,-0.08835 0.06372,-0.155625 0.088853,-0.215785 0.1287093,-0.03148 0.2797589,-0.06981 0.3998369,-0.06981 0.066005,0 0.062451,0.01548 0.063466,0.03173 -0.00228,0.02209 0.0066,0.03807 0.03808,0.03808 0.037826,0 0.087583,-0.03199 0.101546,-0.06981 0.027925,-0.0759 -0.1271862,-0.07616 -0.1650122,-0.07616 -0.078698,0 -0.1751646,0.01015 -0.4061835,0.06347 0.2206084,-0.498337 0.2711276,-0.520419 0.2919444,-0.577543 0.00203,-0.0061 -2.539e-4,-0.0063 -0.00635,-0.0063 z m 5.5279052,0.05077 c -0.0726,0 -0.107385,0.02589 -0.120586,0.06347 -0.07997,0.217816 -0.07261,0.228474 -0.02539,0.228478 0.03478,0 0.0523,-0.01294 0.05712,-0.02539 0.002,-0.0063 0.0041,-0.03199 0.0063,-0.03808 0.0038,-0.01879 0.01193,-0.03808 0.01904,-0.05712 0.0079,-0.02209 0.01929,-0.04138 0.03808,-0.07616 0.01472,-0.02209 0.03656,-0.05382 0.04443,-0.07616 0.0051,-0.01269 -0.0066,-0.01904 -0.01904,-0.01904 z m 4.3220483,0 c -0.07235,0 -0.100275,0.02589 -0.114239,0.06347 -0.07946,0.217816 -0.07311,0.228474 -0.02539,0.228478 0.03478,0 0.05255,-0.01294 0.05712,-0.02539 0.002,-0.0063 0.0038,-0.03199 0.0063,-0.03808 0.0038,-0.01879 0.01168,-0.03808 0.01904,-0.05712 0.0079,-0.02209 0.01269,-0.04138 0.03173,-0.07616 0.01396,-0.02209 0.0429,-0.05382 0.05077,-0.07616 0.0046,-0.01269 -0.01244,-0.01904 -0.02539,-0.01904 z m -8.0094339,0.06347 c -0.012693,0 -0.1177932,0.02285 -0.1396256,0.08251 -0.00711,0.01904 -0.030969,0.101802 -0.03808,0.120586 l -0.1205857,0.330024 c -0.063974,0.02843 -0.1223628,0.05407 -0.2538648,0.120586 -0.023609,0.01269 -0.028179,0.016 -0.031733,0.02539 -0.00812,0.02209 0,0.05712 0.01904,0.05712 0.0033,0 0.1985223,-0.1018 0.2284784,-0.114239 -0.041888,0.123124 -0.085047,0.257161 -0.1142392,0.380787 -0.025386,0.104105 -0.062451,0.247528 0.069813,0.247528 0.1457183,0 0.3005758,-0.174923 0.3173309,-0.222142 0.00609,-0.01572 0.00939,-0.03172 -0.012693,-0.03172 -0.019294,0 -0.025133,0.0036 -0.07616,0.05711 -0.021832,0.02539 -0.1053539,0.120596 -0.1713586,0.120596 -0.088345,0 -0.056106,-0.114483 -0.03808,-0.190399 0.058135,-0.201822 0.1056058,-0.326978 0.1396256,-0.41253 0.080475,-0.03757 0.2099462,-0.08886 0.2411716,-0.08885 0.0066,0 0.025386,0.0063 0.031733,0.0063 0.00939,0 0.1068772,-0.05103 0.1205858,-0.08885 0.00711,-0.01929 -0.015995,-0.01904 -0.025386,-0.01904 -0.091137,0 -0.2711275,0.0792 -0.3300242,0.101546 0.032241,-0.07895 0.088345,-0.212739 0.1142392,-0.266558 l 0.088853,-0.177705 c 0.00355,-0.0094 0.012437,-0.03809 -0.01904,-0.03808 z m 6.0039029,0 c -0.0264,0.201823 -0.03579,0.289658 -0.04443,0.425224 -0.239395,0.120078 -0.292706,0.14927 -0.406184,0.209438 0.200807,-0.230509 0.374704,-0.505451 0.450611,-0.634662 z m 2.767126,0.253865 c -0.02209,0 -0.09926,0.0226 -0.11424,0.06347 -0.002,0.0069 -0.0099,0.09215 -0.01269,0.107893 -0.0051,-0.0033 -0.0094,-0.0063 -0.01904,-0.0063 -0.176689,0 -0.700411,0.527521 -0.774288,0.729861 -0.0231,0.0632 0.03148,0.07616 0.05077,0.07616 0.126171,0 0.58262,-0.438429 0.685435,-0.54581 -0.04519,0.19243 -0.05636,0.340179 -0.05712,0.393491 -0.0023,0.04113 -0.0058,0.165012 0.0952,0.165012 0.03148,0 0.05864,-0.03172 0.06347,-0.04442 0.0043,-0.01271 -0.04849,-0.04722 -0.05077,-0.05713 -0.04392,-0.103841 0.05737,-0.57881 0.152319,-0.837754 0.0069,-0.01904 0.01548,-0.04443 -0.01904,-0.04443 z m -12.7630524,0.07616 c -0.217816,0 -0.4584798,0.388155 -0.5394627,0.609286 -0.039603,0.107375 -0.081491,0.304617 0.1142391,0.304638 0.081998,0 0.1901448,-0.03249 0.3871438,-0.165033 0.050773,-0.03452 0.079967,-0.06371 0.088853,-0.08883 0.00482,-0.01271 0,-0.02541 -0.012693,-0.02539 -0.018786,0 -0.06423,0.03503 -0.088853,0.05077 -0.081745,0.05027 -0.2322884,0.139626 -0.3300242,0.139606 -0.1137314,0 -0.089868,-0.12742 -0.044426,-0.234815 0.2419332,-0.125917 0.4381686,-0.336885 0.4886898,-0.475997 0.033764,-0.09114 -0.022596,-0.114237 -0.063466,-0.114239 z m 6.4291254,0 c -0.217816,0 -0.4645726,0.388155 -0.5458094,0.609286 -0.039095,0.107375 -0.081744,0.304617 0.1142392,0.304638 0.081745,0 0.1903986,-0.03249 0.3871438,-0.165033 0.050519,-0.03452 0.08606,-0.06371 0.095199,-0.08883 0.00457,-0.01271 2.539e-4,-0.02541 -0.012693,-0.02539 -0.018786,0 -0.070323,0.03503 -0.095199,0.05077 -0.081744,0.05027 -0.2259376,0.139626 -0.3236776,0.139606 -0.1134776,0 -0.096215,-0.12742 -0.050773,-0.234815 0.2416792,-0.125917 0.4442654,-0.336885 0.4950363,-0.475997 0.03351,-0.09114 -0.022338,-0.114237 -0.063466,-0.114239 z m -0.4950364,0.0063 c -0.069559,0 -0.172628,0.07006 -0.2602114,0.145972 -0.1477493,0.126171 -0.225178,0.238639 -0.3236776,0.387144 -0.00102,-0.04087 0.01117,-0.244726 0.012693,-0.291945 -0.00228,-0.05331 -0.0066,-0.0952 -0.044426,-0.0952 -0.028433,0 -0.1175373,0.03833 -0.1269323,0.06347 -0.0033,0.0094 0.02615,0.04138 0.031733,0.05077 0.024879,0.05382 0.044173,0.286861 0.01904,0.52677 -0.00812,0.0919 -0.012693,0.120575 0.031733,0.120596 0.028179,0 0.080731,-0.04773 0.088853,-0.06982 0.00203,-0.0061 0.00635,-0.0698 0.00635,-0.06982 0.00406,-0.0632 0.027671,-0.142916 0.03808,-0.171349 0.00711,-0.01879 0.076923,-0.19116 0.2475182,-0.355411 0.1218551,-0.116777 0.2030918,-0.158667 0.215785,-0.158665 0.00939,0 0.00711,0.0033 0.00635,0.03173 0.00203,0.01879 2.539e-4,0.05077 0.03808,0.05077 0.015994,0 0.065495,-0.0099 0.082506,-0.05712 0.018532,-0.05052 0.00305,-0.107892 -0.063466,-0.107892 z m -2.68462,0.03808 c -0.028433,0 -0.1183009,0.03503 -0.1332789,0.07616 -0.019548,0.05382 -0.01523,0.07413 -0.07616,0.241172 -0.028179,0.07565 -0.2043591,0.222649 -0.2982911,0.298301 -0.017263,0.01267 -0.1936988,0.145962 -0.2157851,0.145962 -0.025386,0 -0.011932,-0.0287 -0.00635,-0.04442 0.07159,-0.196004 0.1893811,-0.431834 0.2411716,-0.520433 0.00762,-0.01244 0.044932,-0.07337 0.050773,-0.08885 0.00584,-0.01599 -0.0033,-0.03174 -0.025386,-0.03173 -0.028433,0 -0.1122083,0.02894 -0.1396257,0.0952 -0.024117,0.05687 -0.2244165,0.543017 -0.2348249,0.571206 -0.018532,0.05077 -0.050265,0.133269 0.03808,0.133269 0.022086,0 0.046203,-0.0069 0.133279,-0.06347 0.1667892,-0.110929 0.242189,-0.175167 0.4188769,-0.330024 -0.056612,0.224152 -0.081998,0.349054 0.00635,0.349054 0.044426,0 0.1023075,-0.0604 0.1078926,-0.07616 0.00381,-0.0096 -0.00635,-0.02537 -0.01904,-0.02539 l -0.025386,0.0064 c -0.056866,0 0.033003,-0.305149 0.088853,-0.456956 0.016755,-0.04722 0.03021,-0.08606 0.063466,-0.158666 0.00457,-0.01244 0.033256,-0.06981 0.03808,-0.08251 0.00685,-0.01904 0.00635,-0.03808 -0.012693,-0.03808 z m 1.6945474,0 c -0.028433,0 -0.1185569,0.03503 -0.133279,0.07616 -0.019801,0.05382 -0.01523,0.07413 -0.076159,0.241172 -0.027671,0.07565 -0.2041074,0.222649 -0.2982912,0.298301 -0.017517,0.01267 -0.1934449,0.145962 -0.215785,0.145962 -0.025133,0 -0.012186,-0.0287 -0.00635,-0.04442 0.071844,-0.196004 0.1896349,-0.431834 0.2411715,-0.520433 0.00762,-0.01244 0.045186,-0.07337 0.050773,-0.08885 0.00609,-0.01599 -0.0033,-0.03174 -0.025386,-0.03173 -0.028687,0 -0.1122082,0.02894 -0.1396257,0.0952 -0.024371,0.05687 -0.2244164,0.543017 -0.2348249,0.571206 -0.018278,0.05077 -0.050519,0.133269 0.03808,0.133269 0.022086,0 0.046457,-0.0069 0.133279,-0.06347 0.167043,-0.110929 0.2421869,-0.175167 0.4188768,-0.330024 -0.05712,0.224152 -0.082254,0.349054 0.00635,0.349054 0.043919,0 0.1017999,-0.0604 0.1078926,-0.07616 0.0033,-0.0096 -0.00609,-0.02537 -0.01904,-0.02539 l -0.025386,0.0064 c -0.056358,0 0.03351,-0.305149 0.088853,-0.456956 0.017263,-0.04722 0.030718,-0.08606 0.063466,-0.158666 0.00482,-0.01244 0.033256,-0.06981 0.03808,-0.08251 0.0066,-0.01904 0.00635,-0.03808 -0.012693,-0.03808 z m 3.0844567,0.0063 c -0.07895,0 -0.116016,0.03528 -0.133278,0.08251 -0.02666,0.07286 -0.0036,0.141155 0.08251,0.406184 0.02005,0.05711 0.07311,0.234835 0.05712,0.279251 -0.0071,0.01879 -0.03529,0.04444 -0.0952,0.04444 -0.126424,0 -0.327231,-0.121612 -0.285597,-0.234835 0.0038,-0.01016 0.04011,-0.06347 0.04443,-0.07616 0.003,-0.0096 0.003,-0.02539 -0.01904,-0.02539 -0.02843,0 -0.08378,0.02894 -0.107893,0.09519 -0.05331,0.145231 0.11551,0.323688 0.336372,0.323688 0.110431,0 0.200045,-0.06728 0.228478,-0.145983 0.02437,-0.06649 0.01422,-0.106095 -0.05712,-0.317321 -0.01675,-0.05712 -0.08352,-0.292204 -0.06981,-0.330024 0.0069,-0.01904 0.03478,-0.02538 0.04443,-0.02539 0.04392,0 0.149018,0.04798 0.165012,0.133279 0.0096,0.06017 0.01295,0.06346 0.03173,0.06347 0.01574,0 0.07286,-0.02209 0.08251,-0.05712 0.01853,-0.08504 -0.1249013,-0.215787 -0.3046383,-0.215785 z m 3.1034973,0 c -0.07946,0 -0.115762,0.03528 -0.133279,0.08251 -0.0264,0.07286 -0.0036,0.141155 0.08251,0.406184 0.02056,0.05711 0.07286,0.234835 0.05712,0.279251 -0.0071,0.01879 -0.04138,0.04444 -0.101546,0.04444 -0.125917,0 -0.326727,-0.121612 -0.285598,-0.234835 0.0038,-0.01016 0.03986,-0.06347 0.04443,-0.07616 0.0036,-0.0096 0.0028,-0.02539 -0.01904,-0.02539 -0.02843,0 -0.08378,0.02894 -0.107893,0.09519 -0.05331,0.145231 0.121349,0.323688 0.342717,0.323688 0.110431,0 0.199794,-0.06728 0.228479,-0.145983 0.02463,-0.06649 0.01396,-0.106095 -0.05712,-0.317321 -0.01701,-0.05712 -0.08352,-0.292204 -0.06981,-0.330024 0.0071,-0.01904 0.02869,-0.02538 0.03808,-0.02539 0.04417,0 0.148767,0.04798 0.165012,0.133279 0.0094,0.06017 0.01269,0.06346 0.03173,0.06347 0.01574,0 0.07286,-0.02209 0.0825,-0.05712 0.01853,-0.08504 -0.119062,-0.215787 -0.298291,-0.215785 z m -11.18909,0.03808 c 0.03808,0 0.021323,0.04443 0.01904,0.05077 -0.026656,0.07286 -0.2002993,0.263767 -0.349064,0.342717 0.075144,-0.14521 0.2480258,-0.393492 0.3300242,-0.39349 z m 6.4291254,0 c 0.037826,0 0.021576,0.04443 0.01904,0.05077 -0.026148,0.07286 -0.206646,0.263767 -0.3554107,0.342717 0.075144,-0.14521 0.2538627,-0.393492 0.3363708,-0.39349 z m 1.1170053,0 c -0.03097,0 -0.07997,0.02234 -0.101546,0.03808 -0.03884,0.02869 -0.09622,0.184561 -0.114239,0.234825 -0.03859,0.104338 -0.102308,0.302099 -0.120586,0.41252 -0.0071,0.04444 -0.03148,0.152339 0.05712,0.152319 0.03148,0 0.100277,-0.01903 0.11424,-0.05711 0.0058,-0.01574 0.0091,-0.01598 -0.03808,-0.02539 -0.08073,-0.01269 0.0076,-0.279503 0.03808,-0.361758 0.05204,-0.142164 0.09875,-0.219589 0.133278,-0.279251 0.0081,-0.01269 0.05153,-0.07337 0.05712,-0.08885 0.0058,-0.01625 -0.0061,-0.02538 -0.02539,-0.02539 z m 4.3283943,0 c -0.03122,0 -0.07997,0.02234 -0.101545,0.03808 -0.03884,0.02869 -0.09494,0.184561 -0.11424,0.234825 -0.03808,0.104338 -0.102052,0.302099 -0.120586,0.41252 -0.0066,0.04444 -0.03148,0.152339 0.05712,0.152319 0.03097,0 0.10053,-0.01903 0.114239,-0.05711 0.0058,-0.01574 0.0023,-0.01598 -0.04443,-0.02539 -0.08048,-0.01269 0.01421,-0.279503 0.04443,-0.361758 0.05204,-0.142164 0.09215,-0.219589 0.126933,-0.279251 0.0076,-0.01269 0.05788,-0.07337 0.06347,-0.08885 0.0056,-0.01625 -0.0061,-0.02538 -0.02539,-0.02539 z m 0.748901,0.08885 c 0.02793,0 0.03478,0.02563 0.02539,0.05077 -0.02665,0.07286 -0.571194,0.564849 -0.634662,0.564849 -0.0091,0 -0.0084,-0.0132 -0.0063,-0.01905 0.04062,-0.110421 0.4958,-0.596568 0.615622,-0.596572 z" id="path9756" style="fill:#ffb20e;fill-opacity:1;fill-rule:nonzero;stroke:none"/>
  <path d="m 10.921467,-1.6518765 c -1.7262813,0 -3.122537,1.396763 -3.122537,3.122536 0,1.725771 1.3962557,3.128884 3.122537,3.128884 0.739762,-1e-5 1.425958,-0.261735 1.961106,-0.691782 l -0.03173,-0.165012 c -0.375975,0.196747 -0.802974,0.310984 -1.25663,0.310984 -1.49958,0 -2.7163533,-1.216773 -2.7163533,-2.716353 0,-1.499829 1.2167733,-2.716353 2.7163533,-2.716353 0.101799,0 0.199284,0.0081 0.298291,0.01904 l -0.02539,-0.145973 c -0.297023,-0.09393 -0.617399,-0.145971 -0.945646,-0.145971 z m -9.2533713,0.0825 0,0.190399 c 0.3328167,0.05051 0.535147,0.29956 0.3427175,0.615623 l -3.6937325,5.299431 0.4569565,0 3.8968244,-5.223267 0,1.853213 -1.0281524,0 -0.2729046,0.501382 1.301057,0 0,2.868672 0.012693,0 1.0027657,0 0,-6.105448 -2.0182249,0 z m 2.3736356,0 0,0.184053 c 0.510776,0.08098 0.5986132,0.393997 0.6029289,0.621969 l 0,5.299426 1.0154591,0 0,-2.855978 1.5549218,0 c -0.00406,-0.06778 -0.00635,-0.134295 -0.00635,-0.203092 0,-0.100023 0.00432,-0.200299 0.012693,-0.298291 l -1.5612684,0 0,-2.265744 2.659233,0 c 0.193191,-0.183541 0.403391,-0.343478 0.634663,-0.482343 l -4.912284,0 z m 10.5163487,3.782586 -0.01904,0.02539 c 0.0096,0.01066 0.01625,0.02819 0.01904,0.04443 0.0025,0.0165 0.0084,0.02666 0.0063,0.03808 l 0.03173,0.01904 c 0.0038,-0.02183 0.0058,-0.0429 0,-0.06347 l 0.139625,0.07616 0.01904,-0.03808 -0.196746,-0.101546 z m -0.05077,0.145972 c -0.01929,0.0028 -0.03376,0.01294 -0.04443,0.03173 -0.01092,0.01879 -0.01371,0.03274 -0.0063,0.05077 0.0086,0.02209 0.02691,0.04874 0.06347,0.06981 0.03681,0.02132 0.06778,0.02844 0.08885,0.02539 0.02132,-0.003 0.04011,-0.01295 0.05077,-0.03173 0.01092,-0.01879 0.0069,-0.0391 0,-0.05712 -0.0089,-0.02183 -0.02716,-0.0424 -0.06347,-0.06347 -0.03656,-0.02107 -0.06575,-0.02895 -0.08885,-0.02539 z m -0.0063,0.03808 c 0.0048,-0.002 0.01574,-0.0025 0.02539,0 0.0099,0.0028 0.02158,0.01219 0.04443,0.02539 0.02285,0.0132 0.04265,0.02387 0.05077,0.03173 0.0061,0.0061 0.0053,0.01396 0.0063,0.01904 7.61e-4,0.0051 0.0023,0.0081 0,0.01269 -0.0028,0.0043 -0.0081,0.0046 -0.01269,0.0063 -0.0051,0.0018 -0.0091,0.0025 -0.01904,0 -0.0096,-0.0028 -0.02792,-0.01219 -0.05077,-0.02539 -0.02285,-0.0132 -0.03605,-0.02361 -0.04443,-0.03173 -0.0061,-0.0061 -0.01193,-0.0076 -0.01269,-0.01269 -0.0013,-0.0051 -0.0023,-0.01447 0,-0.01904 0.0025,-0.0043 0.0079,-0.0048 0.01269,-0.0063 z m -0.08251,0.101546 c -0.01955,0.0023 -0.03326,0.01346 -0.04443,0.03173 -0.01168,0.01828 -0.01269,0.03885 -0.0063,0.05712 0.0081,0.02209 0.02767,0.04138 0.06347,0.06347 0.0363,0.02259 0.06727,0.03427 0.08885,0.03173 0.02082,-0.0025 0.03935,-0.0132 0.05077,-0.03173 0.01142,-0.01828 0.0132,-0.03884 0.0063,-0.05712 -0.0079,-0.02209 -0.03377,-0.04138 -0.06981,-0.06347 -0.0358,-0.02234 -0.06575,-0.03452 -0.08885,-0.03173 z m 0,0.04443 c 0.0048,-0.0018 0.0094,-0.003 0.01904,0 0.0096,0.0028 0.02844,0.01142 0.05077,0.02539 0.02259,0.01371 0.03681,0.02335 0.04443,0.03173 0.0061,0.0063 0.0056,0.01371 0.0063,0.01904 7.61e-4,0.0053 0.0028,0.0084 0,0.01269 -0.0025,0.0046 -0.0079,0.01116 -0.01269,0.01269 -0.0048,0.0015 -0.0094,-0.0033 -0.01904,-0.0063 -0.0099,-0.0028 -0.02843,-0.01142 -0.05077,-0.02539 -0.02209,-0.01371 -0.0363,-0.02335 -0.04443,-0.03173 -0.0058,-0.0063 -0.01219,-0.01397 -0.01269,-0.01904 -10e-4,-0.0053 0.0036,-0.0086 0.0063,-0.01269 0.0028,-0.0046 0.0079,-0.0048 0.01269,-0.0063 z m -0.08885,0.0952 c -0.01701,0.0041 -0.03249,0.0132 -0.04442,0.03173 -0.01117,0.01675 -0.01371,0.03377 -0.01269,0.05077 0.001,0.0165 0.0076,0.03554 0.02539,0.05077 l 0.02539,-0.03808 c -0.0096,-0.0074 -0.01117,-0.01193 -0.01269,-0.01904 -0.0018,-0.0074 -0.0048,-0.01803 0,-0.02539 0.0053,-0.0076 0.01218,-0.01142 0.01904,-0.01269 0.0074,-0.0015 0.01726,7.66e-4 0.02539,0.0063 0.0071,0.0046 0.01498,0.0094 0.01904,0.01904 0.003,0.0074 0.002,0.02463 0.0063,0.05077 0.0053,0.03199 0.01244,0.0556 0.01904,0.06981 0.0069,0.01422 0.01371,0.02843 0.02539,0.03808 l 0.08251,-0.126932 -0.03173,-0.01904 -0.04443,0.06981 c -0.002,-0.0041 -0.0048,-0.0076 -0.0063,-0.01269 -0.0015,-0.0051 -0.0038,-0.02005 -0.0063,-0.03808 -0.003,-0.01802 -0.0038,-0.03021 -0.0063,-0.03808 -0.0038,-0.01193 -0.0069,-0.02386 -0.01269,-0.03173 -0.0053,-0.0081 -0.01701,-0.01345 -0.02539,-0.01904 -0.01447,-0.0096 -0.02742,-0.01041 -0.04443,-0.0063 z m -0.139625,0.209439 c -0.02285,0.0043 -0.04722,0.01625 -0.06347,0.03808 -0.01853,0.02513 -0.02412,0.05509 -0.01904,0.08251 0.0051,0.02767 0.02082,0.04772 0.05077,0.06981 0.02818,0.02107 0.06093,0.03503 0.08885,0.03173 0.02742,-0.0033 0.04595,-0.02056 0.06347,-0.04443 0.01447,-0.01929 0.02564,-0.03757 0.02539,-0.05712 -2.54e-4,-0.0198 -0.01016,-0.03706 -0.02539,-0.05712 l -0.03808,0.02539 c 0.01092,0.01269 0.01802,0.02666 0.01904,0.03808 0.0013,0.01168 -0.0056,0.02183 -0.01269,0.03173 -0.0099,0.01295 -0.02234,0.01803 -0.03808,0.01904 -0.01599,0.0013 -0.03427,-0.0086 -0.05712,-0.02539 -0.02107,-0.01574 -0.02843,-0.02868 -0.03173,-0.04443 -0.0036,-0.01498 -0.0041,-0.03097 0.0063,-0.04443 0.0071,-0.0096 0.01497,-0.016 0.02539,-0.01904 0.01015,-0.0025 0.02081,0.0015 0.03173,0.0063 l 0.01904,-0.04443 c -0.01752,-0.0066 -0.03046,-0.0086 -0.04443,-0.0063 z m -0.133279,0.145972 -0.0952,0.114239 0.17136,0.139626 0.03173,-0.03173 -0.07616,-0.06347 0.05712,-0.06981 -0.02539,-0.02539 -0.05712,0.07616 -0.04443,-0.03808 0.06981,-0.08251 -0.03173,-0.01904 z m -0.165012,0.196745 -0.03173,0.03808 0.11424,0.209438 0.03173,-0.03808 -0.02539,-0.04443 0.05712,-0.06981 0.05077,0.01904 0.03173,-0.03808 -0.228478,-0.07616 z m 0.02539,0.05077 0.08251,0.03173 -0.03808,0.04443 -0.04443,-0.07616 z m -0.08251,0.0952 c -0.02005,-0.0046 -0.03732,5.14e-4 -0.05712,0.0063 -0.0198,0.0061 -0.03655,0.01651 -0.05077,0.03173 -0.01396,0.01498 -0.02691,0.03072 -0.03173,0.05077 -0.0048,0.02005 2.56e-4,0.03732 0.0063,0.05712 0.0058,0.0198 0.01041,0.0429 0.02539,0.05712 0.01523,0.01422 0.03707,0.02057 0.05712,0.02539 0.02031,0.0046 0.03732,0.0061 0.05712,0 0.0198,-0.0058 0.03681,-0.0165 0.05077,-0.03173 0.01422,-0.01498 0.02717,-0.03707 0.03173,-0.05712 0.0048,-0.02031 -2.56e-4,-0.03731 -0.0063,-0.05712 -0.0058,-0.0198 -0.0165,-0.03656 -0.03173,-0.05077 -0.01523,-0.01422 -0.03072,-0.02691 -0.05077,-0.03173 z m -0.02539,0.02539 c 0.02564,-7.62e-4 0.04468,0.0076 0.06347,0.02539 0.01904,0.01777 0.03072,0.03783 0.03173,0.06347 7.61e-4,0.02589 -0.0079,0.04468 -0.02539,0.06347 -0.01752,0.01879 -0.04392,0.03097 -0.06981,0.03173 -0.02564,7.61e-4 -0.04468,-0.0079 -0.06347,-0.02539 -0.01878,-0.01752 -0.03097,-0.03758 -0.03173,-0.06347 -7.62e-4,-0.02564 0.0079,-0.05102 0.02539,-0.06981 0.01752,-0.01853 0.04392,-0.02463 0.06981,-0.02539 z m -0.01269,0.02539 c -0.01269,0.0018 -0.02158,0.0084 -0.03173,0.01904 -0.01244,0.0132 -0.0198,0.02741 -0.01904,0.04443 5.08e-4,0.01726 0.0056,0.03173 0.01904,0.04443 0.01447,0.01346 0.03376,0.0193 0.05077,0.01904 0.0165,-5.08e-4 0.03173,-0.0053 0.04443,-0.01904 0.01142,-0.01219 0.01269,-0.02335 0.01269,-0.03808 0,-0.0094 0,-0.02056 -0.0063,-0.03173 l -0.02539,0.01904 c 0.0061,0.0086 0.0063,0.01244 0.0063,0.01904 0,0.0066 -0.0023,0.01447 -0.0063,0.01904 -0.0069,0.0071 -0.01523,0.0086 -0.02539,0.0063 -0.0071,-0.0015 -0.01472,-0.0089 -0.02539,-0.01904 -0.01041,-0.0096 -0.01777,-0.017 -0.01904,-0.02539 -10e-4,-0.0086 7.62e-4,-0.01321 0.0063,-0.01904 0.0046,-0.0048 0.01295,-0.01193 0.01904,-0.01269 0.0063,-7.62e-4 0.01168,0.002 0.01904,0.0063 l 0.01904,-0.02539 c -0.01117,-0.0066 -0.02564,-0.0084 -0.03808,-0.0063 z m -6.2958461,2.373636 c -0.3254546,0 -0.4061856,0.22467 -0.4061836,0.495036 0,0.327232 0.1132236,0.514078 0.4125303,0.514076 0.1447028,0 0.2614787,-0.0363 0.2982911,-0.05077 l 0,-0.0952 c -0.038334,0.02792 -0.1264248,0.08251 -0.2538648,0.08251 -0.2815361,0 -0.2982911,-0.325203 -0.2982911,-0.48869 0,-0.150287 0.034526,-0.393494 0.2348249,-0.39349 0.1325174,0 0.1581577,0.104079 0.165012,0.152319 l 0.1777054,0 c -0.016043,-0.116535 -0.1026124,-0.2158 -0.3300732,-0.215796 z m -2.6782733,0.0063 -0.2538649,0.03808 0,0.03173 c 0.084791,0.0041 0.1142392,0.02133 0.1142392,0.120586 0,0 0,0.336879 0,0.495036 0,0.167551 0.066259,0.323678 0.2729046,0.323678 0.2241626,0 0.2982911,-0.15308 0.2982911,-0.330024 0,-0.173392 -0.051027,-0.355411 -0.2538647,-0.355411 -0.1109369,-10e-6 -0.1518111,0.05483 -0.1777053,0.101546 l 0,-0.425223 z m 1.3962562,0 -0.2475181,0.03808 0,0.03173 c 0.083775,0.0041 0.1078924,0.0259 0.1078924,0.126933 l 0,0.799674 0.1396257,0 0,-0.996419 z m 0.3744506,0 -0.2538648,0.03808 0,0.03173 c 0.084029,0.0041 0.1078925,0.0259 0.1078925,0.126933 l 0,0.799674 0.1459723,0 0,-0.996419 z m 3.0273373,0 c -0.170597,0 -0.222132,0.127692 -0.222132,0.241171 l 0,0.152319 0,0.602929 0.145973,0 0,-0.602929 0.184051,0 c 0,0 0.01473,-0.03401 0.03808,-0.05712 l -0.222131,0 0,-0.126932 c 0,-0.06651 0.0066,-0.158661 0.08885,-0.158665 0.07083,0 0.08758,0.06931 0.08885,0.120585 l 0.158665,0 c -0.01574,-0.10383 -0.07844,-0.171363 -0.260211,-0.171358 z m 1.4406833,0 -0.247519,0.03808 0,0.03173 c 0.08403,0.0041 0.107893,0.0259 0.107893,0.126933 l 0,0.228478 -0.0063,0 c -0.02716,-0.04671 -0.06753,-0.101546 -0.184051,-0.101546 -0.187099,-10e-6 -0.260211,0.175167 -0.260211,0.355411 0,0.176942 0.0693,0.330024 0.253863,0.330024 0.1018,0 0.161205,-0.05483 0.196746,-0.08885 l 0,0.07616 0.139626,0 0,-0.996419 z m -11.06215825,0.03173 c -0.049504,0 -0.088853,0.04037 -0.088853,0.08885 0,0.0495 0.04062,0.08886 0.088853,0.08885 0.049757,0 0.088855,-0.03934 0.088853,-0.08885 0,-0.0495 -0.040364,-0.08885 -0.088853,-0.08885 z m 13.84832325,0 c -0.04976,0 -0.0952,0.04037 -0.0952,0.08885 0,0.0495 0.04062,0.08886 0.08885,0.08885 0.04976,0 0.0952,-0.03934 0.0952,-0.08885 0,-0.0495 -0.04062,-0.08885 -0.08885,-0.08885 z m -14.9780215,0.01269 -0.00635,0.02539 c 0.053565,0.0084 0.1030692,0.0132 0.082506,0.06981 -0.00381,0.0097 -0.039857,0.05864 -0.05712,0.08251 l -0.5648491,0.774288 0.088853,0 0.2157851,-0.298291 0.050773,-0.06347 0.2982911,-0.412531 0.012693,0.412531 -0.2221317,0 -0.050773,0.06347 0.2729046,0 0,0.298291 0.14597226,0 0,-0.951993 -0.26655796,0 z m 3.1986963,0 0,0.02539 c 0.1299787,0.02107 0.1332789,0.02437 0.1332789,0.165012 l 0,0.761595 0.1586656,0 0,-0.463303 0.2729046,0 0.01904,-0.06981 -0.2919444,0 0,-0.279252 c 0,-0.06829 0.017517,-0.07615 0.088853,-0.07616 l 0.1142391,0 c 0.092153,0 0.1903986,0 0.1903986,0 l 0,-0.06347 -0.6854348,0 z m 2.2974761,0.05712 -0.1396255,0.120585 0,0.114239 -0.1332791,0 0.03808,0.05712 0.095199,0 0,0.437917 c 0,0.161712 0.079713,0.177707 0.215785,0.177705 0.031225,0 0.081998,-0.0036 0.095199,-0.0063 -0.011678,-0.01777 -0.025387,-0.05712 -0.025387,-0.05712 -0.00863,0.0025 -0.00838,0.0063 -0.025386,0.0063 -0.1091618,0 -0.1205858,-0.04671 -0.1205858,-0.145972 l 0,-0.41253 0.1586656,0 0,-0.05712 -0.1586656,0 0,-0.234824 z m 8.9995071,0 -0.145973,0.120585 0,0.114239 -0.126932,0 0.03173,0.05712 0.0952,0 0,0.437917 c 0,0.161712 0.0792,0.177707 0.215785,0.177705 0.03123,0 0.0825,-0.0036 0.0952,-0.0063 -0.01117,-0.01777 -0.01904,-0.05712 -0.01904,-0.05712 -0.0094,0.0025 -0.01447,0.0063 -0.03173,0.0063 -0.109162,0 -0.114237,-0.04671 -0.114239,-0.145972 l 0,-0.41253 0.184051,0 0,-0.05712 -0.184051,0 0,-0.234824 z m -13.81029355,0.222179 c -0.1672969,0 -0.2348249,0.08783 -0.2348249,0.190399 0,0.195729 0.3109843,0.203593 0.3109843,0.342717 0,0.0495 -0.031225,0.0952 -0.1205858,0.0952 -0.079713,0 -0.1495263,-0.04772 -0.1903985,-0.07616 l 0,0.107893 c 0.032749,0.0084 0.097738,0.02539 0.1840519,0.02539 0.1411488,0 0.2538648,-0.05128 0.2538648,-0.190399 0,-0.217054 -0.3109844,-0.220602 -0.3109844,-0.35541 0,-0.06118 0.056102,-0.08251 0.101546,-0.08251 0.07946,0 0.1434356,0.05585 0.165012,0.06981 l 0,-0.107892 c -0.024371,-0.0056 -0.085808,-0.01905 -0.1586654,-0.01904 z m 0.5140761,0 -0.2538647,0.04443 0,0.02539 c 0.086314,0.003 0.1078925,0.02742 0.1078925,0.126932 l 0,0.475997 0.1459722,0 0,-0.672742 z m 0.3744506,0 c -0.1462281,0.02028 -0.1831949,0.108433 -0.1967452,0.190399 l 0.1650121,0 c 0,-0.0627 0.00787,-0.145972 0.1015459,-0.145972 0.089106,0 0.088853,0.100784 0.088853,0.190398 l 0,0.06981 c -0.09063,0.003 -0.3744504,0.02209 -0.3744504,0.222132 0,0.08327 0.079713,0.158665 0.1903985,0.158665 0.1091598,0 0.1589193,-0.06524 0.1840519,-0.0952 l 0,0.08251 0.1396257,0 0,-0.43157 c 0,-0.14039 -0.02691,-0.241172 -0.2284783,-0.241172 -0.025577,0 -0.048923,-0.0029 -0.069813,0 z m 0.66639505,0 -0.25386475,0.04443 0,0.02539 c 0.08936,0.003 0.1142391,0.02742 0.1142391,0.126932 l 0,0.475997 0.13962565,0 0,-0.342718 c 0,-0.101292 0.084029,-0.234825 0.1777053,-0.234825 0.094946,0 0.095199,0.09748 0.095199,0.209439 l 0,0.368104 0.1396255,0 0,-0.475997 c 0,-0.109415 -0.042651,-0.196751 -0.1713586,-0.196745 -0.1406411,0 -0.2132444,0.127946 -0.2348249,0.177705 l -0.00635,0 0,-0.177705 z m 1.8468663,0 c -0.1576541,0.02413 -0.2348249,0.135247 -0.2348249,0.342718 0,0.19878 0.076159,0.342717 0.3046377,0.342717 0.2104538,0 0.3046377,-0.111193 0.3046377,-0.342717 0,-0.204358 -0.098499,-0.342718 -0.3046377,-0.342718 -0.025862,0 -0.04729,-0.0034 -0.069813,0 z m 0.7044747,0 c -0.1577029,0.02413 -0.2348249,0.135247 -0.2348249,0.342718 0,0.19878 0.082506,0.342717 0.3109843,0.342717 0.2104518,0 0.3046377,-0.111193 0.3046377,-0.342717 0,-0.204358 -0.098753,-0.342718 -0.3046377,-0.342718 -0.025862,0 -0.05363,-0.0034 -0.076159,0 z m 1.9103324,0 c -0.1462769,0.020277 -0.1831949,0.108433 -0.1967452,0.190399 l 0.1650121,0 c 0,-0.0627 0.00787,-0.145972 0.1015459,-0.145972 0.089361,0 0.088853,0.100784 0.088853,0.190398 l 0,0.06981 c -0.09063,0.003 -0.3744505,0.02209 -0.3744505,0.222132 0,0.08327 0.07946,0.158665 0.1903985,0.158665 0.1094137,0 0.1586656,-0.06524 0.184052,-0.0952 l 0,0.08251 0.1396256,0 0,-0.43157 c 0,-0.14039 -0.027163,-0.241172 -0.2284783,-0.241172 -0.025577,0 -0.048917,-0.0029 -0.069813,0 z m 2.551341,0 c -0.1576054,0.02413 -0.2348249,0.135247 -0.2348249,0.342718 0,0.19878 0.076159,0.342717 0.3046378,0.342717 0.2102002,0 0.3046382,-0.111193 0.3046382,-0.342717 0,-0.204358 -0.0985,-0.342718 -0.3046382,-0.342718 -0.025862,0 -0.047298,-0.0034 -0.069813,0 z m 0.7044751,0 -0.253865,0.04443 0,0.02539 c 0.08936,0.003 0.114239,0.02742 0.114239,0.126932 l 0,0.475997 0.139626,0 0,-0.342718 c 0,-0.101292 0.08454,-0.234825 0.177705,-0.234825 0.09545,0 0.0952,0.09748 0.0952,0.209439 l 0,0.368104 0.139626,0 0,-0.475997 c 0,-0.109415 -0.04214,-0.196751 -0.171359,-0.196745 -0.140641,0 -0.213246,0.127946 -0.234825,0.177705 l -0.0063,0 0,-0.177705 z m 1.2122043,0 c -0.1480333,0.02182 -0.2348253,0.121189 -0.2348253,0.317331 0,0.237106 0.131756,0.368104 0.3490643,0.368104 0.09774,0 0.176436,-0.02843 0.203092,-0.03808 l 0,-0.05712 c -0.02361,0.01041 -0.07337,0.01904 -0.133279,0.01904 -0.199538,0 -0.2602113,-0.200807 -0.2602113,-0.342718 l 0.4061843,0 c 0,-0.09495 -0.02336,-0.266558 -0.266558,-0.266558 -0.02377,0 -0.04232,-0.0031 -0.06347,0 z m 1.415296,0 c -0.148156,0.02182 -0.228478,0.121189 -0.228478,0.317331 0,0.237106 0.131502,0.368104 0.349064,0.368104 0.09799,0 0.170089,-0.02843 0.196745,-0.03808 l 0,-0.05712 c -0.02361,0.01041 -0.07388,0.01904 -0.133279,0.01904 -0.200299,0 -0.253865,-0.200807 -0.253865,-0.342718 l 0.399838,0 c 0,-0.09495 -0.01701,-0.266558 -0.260212,-0.266558 -0.0238,0 -0.04865,-0.0031 -0.06981,0 z m 0.691782,0 -0.253865,0.04443 0,0.02539 c 0.08936,0.003 0.107893,0.02742 0.107893,0.126932 l 0,0.475997 0.145972,0 0,-0.336371 c 0,-0.09952 0.04062,-0.215789 0.184051,-0.215785 0.02463,0 0.04747,0.01193 0.06981,0.01904 l 0,-0.133279 c -0.02412,-0.0043 -0.05026,-0.0064 -0.07616,-0.0063 -0.113224,0 -0.158414,0.119067 -0.177705,0.184052 l 0,-0.184052 z m 0.539462,0 c -0.146061,0.02028 -0.182974,0.108433 -0.196745,0.190399 l 0.165012,0 c 0,-0.0627 0.0081,-0.145972 0.101546,-0.145972 0.08936,0 0.08885,0.100784 0.08885,0.190398 l 0,0.06981 c -0.09088,0.003 -0.374451,0.02209 -0.374451,0.222132 0,0.08327 0.07946,0.158665 0.190398,0.158665 0.109163,0 0.158921,-0.06524 0.184053,-0.0952 l 0,0.08251 0.139626,0 0,-0.43157 c 0,-0.14039 -0.02666,-0.241172 -0.228479,-0.241172 -0.02554,0 -0.04895,-0.0029 -0.06981,0 z m 1.224897,0 -0.247517,0.04443 0,0.02539 c 0.08708,0.003 0.107892,0.02742 0.107892,0.126932 l 0,0.475997 0.139625,0 0,-0.672742 z m 0.418877,0 c -0.157898,0.02413 -0.234824,0.135247 -0.234824,0.342718 0,0.19878 0.07641,0.342717 0.304638,0.342717 0.209692,0 0.304638,-0.111193 0.304638,-0.342717 0,-0.204358 -0.09875,-0.342718 -0.304638,-0.342718 -0.02593,0 -0.04726,-0.0034 -0.06981,0 z m 0.704476,0 -0.253865,0.04443 0,0.02539 c 0.08961,0.003 0.114239,0.02742 0.114239,0.126932 l 0,0.475997 0.139626,0 0,-0.342718 c 0,-0.101292 0.08377,-0.234825 0.177704,-0.234825 0.09444,0 0.0952,0.09748 0.0952,0.209439 l 0,0.368104 0.139626,0 0,-0.475997 c 0,-0.109415 -0.04214,-0.196751 -0.17136,-0.196745 -0.14064,0 -0.213754,0.127946 -0.234824,0.177705 l -0.0063,0 0,-0.177705 z m -12.0078047,0.04443 c 0.1378485,0 0.1523188,0.167804 0.1523188,0.298291 0,0.14166 -0.012947,0.298291 -0.1523188,0.298291 -0.1406411,0 -0.1523189,-0.180498 -0.1523189,-0.298291 0,-0.124644 0.011678,-0.298291 0.1523189,-0.298291 z m 0.7108213,0 c 0.1378466,0 0.1459723,0.167804 0.1459723,0.298291 0,0.14166 -0.00685,0.298291 -0.1459723,0.298291 -0.1401354,0 -0.1523188,-0.180498 -0.1523188,-0.298291 0,-0.124644 0.012185,-0.298291 0.1523188,-0.298291 z m 4.4553269,0 c 0.1381032,0 0.1523192,0.167804 0.1523192,0.298291 0,0.14166 -0.01295,0.298291 -0.1523192,0.298291 -0.1398796,0 -0.1523189,-0.180498 -0.1523189,-0.298291 0,-0.124644 0.012439,-0.298291 0.1523189,-0.298291 z m 1.9039855,0 c 0.122871,0 0.126933,0.132517 0.126933,0.165012 l -0.2602113,0 c 0,-0.05356 0.0264,-0.165012 0.1332783,-0.165012 z m 1.421644,0 c 0.123629,0 0.126932,0.132517 0.126932,0.165012 l -0.260212,0 c 0,-0.05356 0.02691,-0.165012 0.13328,-0.165012 z m 2.881365,0 c 0.137594,0 0.152319,0.167804 0.152319,0.298291 0,0.14166 -0.0132,0.298291 -0.152319,0.298291 -0.140642,0 -0.152319,-0.180498 -0.152319,-0.298291 0,-0.124644 0.01168,-0.298291 0.152319,-0.298291 z m -9.4374238,0.03173 c 0.1233803,-1e-5 0.133279,0.16095 0.133279,0.260211 0,0.10916 -0.010916,0.298291 -0.1459723,0.298291 -0.1177952,0 -0.1269323,-0.197761 -0.1269323,-0.272905 l 0,-0.06347 c 0,-0.07946 0.015993,-0.222131 0.1396256,-0.222131 z m 5.8071568,0 c 0.135056,-1e-5 0.152319,0.142672 0.152319,0.222131 l 0,0.06347 c 0,0.07514 -0.01625,0.247519 -0.152319,0.247519 -0.133786,0 -0.139625,-0.163743 -0.139625,-0.272905 0,-0.09926 0.0089,-0.260211 0.139625,-0.260211 z m -10.16728445,0.279251 0,0.08251 c 0,0.09646 -0.051281,0.171359 -0.1332789,0.171359 -0.052802,0 -0.082506,-0.0424 -0.082506,-0.107893 0,-0.134804 0.1647582,-0.144449 0.215785,-0.145972 z m 5.12806855,0 0,0.08251 c 0,0.09646 -0.051534,0.171359 -0.133279,0.171359 -0.052802,0 -0.082506,-0.0424 -0.082506,-0.107893 0,-0.134804 0.1645045,-0.144449 0.2157851,-0.145972 z m 7.1145609,0 0,0.08251 c 0,0.09646 -0.05153,0.171359 -0.13328,0.171359 -0.05281,0 -0.08251,-0.0424 -0.08251,-0.107893 0,-0.134804 0.164504,-0.144449 0.215785,-0.145972 z" id="path9752" style="fill:#0e1075;fill-opacity:1;fill-rule:nonzero;stroke:none"/>
</svg>