<svg xmlns="http://www.w3.org/2000/svg" xmlns:xlink="http://www.w3.org/1999/xlink" version="1.0" id="HQFL" x="0px" y="0px" width="391.145px" height="391.139px" viewBox="0 0 391.145 391.139" enable-background="new 0 0 391.145 391.139" xml:space="preserve">
<path fill="#152D5A" d="M0,195.569C0,87.568,87.568,0,195.569,0c107.983,0,195.575,87.568,195.575,195.569H0z"/>
<path fill="#ECCC67" d="M330.708,195.569l-42.875-14.613l36.271-27.149l-45.315-0.646l26.127-37.031l-43.306,13.386l13.398-43.275  l-28.974,20.426l-50.465-12.16L145.445,106.9L116.13,86.234l13.398,43.282l-43.288-13.38l26.097,37.019l-45.303,0.652l36.277,27.149  l-42.887,14.613H0c0,107.989,87.568,195.57,195.569,195.57c107.983,0,195.575-87.581,195.575-195.57H330.708z"/>
<path fill="#162D4D" d="M47.068,216.481c-0.801-5.671-5.706-10.252-15.492-8.889c-9.774,1.352-13.255,7.118-12.465,12.765  s5.706,10.24,15.48,8.9C44.353,227.893,47.846,222.127,47.068,216.481z M22.915,219.831c-0.431-3.158,1.902-6.054,9.379-7.106  c7.465-1.028,10.503,1.125,10.946,4.283c0.443,3.158-1.89,6.053-9.367,7.105C26.396,225.142,23.357,222.989,22.915,219.831z"/>
<path fill="#162D4D" d="M27.903,245.479c-0.861-3.11,0.502-6.341,5.79-7.824c5.288-1.459,8.135,0.622,8.996,3.709  c0.526,1.914,0.12,3.302-0.036,4.187l3.421-0.741c0.072-0.838,0.155-2.704-0.419-4.762c-1.687-6.077-7.106-8.015-13.075-6.364  c-5.946,1.675-9.594,6.102-7.872,12.298c0.514,1.866,1.34,3.565,1.962,4.235l3.35-1.173  C29.184,248.374,28.406,247.297,27.903,245.479z"/>
<polygon fill="#162D4D" points="32.15,257.417 37.964,255.168 40.453,261.557 43.324,260.432 40.859,254.044 46.111,252.01   48.731,258.757 51.626,257.633 47.594,247.273 27.855,254.929 31.995,265.577 34.878,264.476 "/>
<path fill="#162D4D" d="M55.25,265.242l-22.06,3.373l1.759,3.445l5.228-0.98l3.326,6.46l-3.852,3.66l1.831,3.541l15.707-15.719  L55.25,265.242z M45.764,275.458l-2.572-5.024l10.121-1.914l0.024,0.072L45.764,275.458z"/>
<polygon fill="#162D4D" points="67.764,286.201 53.971,295.459 53.935,295.412 63.816,280.315 61.244,276.487 43.67,288.282   45.632,291.225 59.33,282.013 59.354,282.061 49.58,297.086 52.164,300.939 69.726,289.12 "/>
<polygon fill="#162D4D" points="72.214,292.11 55.717,305.365 58.134,308.379 74.654,295.125 "/>
<path fill="#162D4D" d="M80.54,301.872l-20.241,9.403l2.668,2.823l4.737-2.393l5.012,5.264l-2.68,4.594l2.751,2.895l10.671-19.499  L80.54,301.872z M74.308,314.337l-3.876-4.092l9.164-4.689l0.06,0.048L74.308,314.337z"/>
<polygon fill="#162D4D" points="96.463,323.5 100.985,317.567 108.019,322.926 110.447,319.745 99.43,311.323 82.765,333.119   86.761,336.181 94.022,326.683 100.733,331.827 103.174,328.621 "/>
<path fill="#162D4D" d="M116.046,330.176c-3.792-2.249-8.924-1.483-12.8,5.048c-3.888,6.556-2.082,11.437,1.699,13.686  c3.78,2.226,8.924,1.483,12.8-5.072S119.826,332.425,116.046,330.176z M114.299,341.804c-2.967,5-5.73,5.79-7.848,4.546  c-2.105-1.244-2.728-4.067,0.239-9.068c2.955-5.024,5.73-5.813,7.836-4.546C116.644,333.98,117.266,336.78,114.299,341.804z"/>
<path fill="#162D4D" d="M132.806,338.765c-4.032-1.746-9.044-0.383-12.095,6.58c-3.063,6.986-0.682,11.604,3.35,13.351  c4.008,1.794,9.02,0.406,12.083-6.58C139.206,345.154,136.837,340.536,132.806,338.765z M132.483,350.513  c-2.333,5.335-4.988,6.46-7.237,5.479c-2.261-0.98-3.206-3.685-0.874-9.044c2.345-5.312,4.989-6.436,7.226-5.455  C133.859,342.474,134.828,345.177,132.483,350.513z"/>
<polygon fill="#162D4D" points="153.047,346.494 140.415,342.354 139.445,345.297 143.943,346.756 138.321,363.935 142.005,365.156   147.628,347.977 152.102,349.436 "/>
<path fill="#162D4D" d="M161.792,358.935l0.012-0.048c1.471-0.216,3.768-0.718,4.498-3.996c0.777-3.493-0.813-5.526-5.084-6.483  l-6.029-1.364l-4.618,20.672l6.305,1.412c3.661,0.813,6.867-0.622,7.716-4.379C165.369,361.303,163.299,359.653,161.792,358.935z   M156.983,366.113l-2.093-0.479l1.412-6.341l1.986,0.455c2.333,0.526,2.979,2.081,2.572,3.899  C160.428,365.562,159.029,366.567,156.983,366.113z M158.873,356.949l-1.95-0.431l1.316-5.861l1.854,0.406  c1.818,0.407,2.823,1.723,2.429,3.47C162.139,356.231,160.739,357.379,158.873,356.949z"/>
<path fill="#162D4D" d="M175.31,350.896l-9.499,20.217l3.864,0.431l2.093-4.881l7.226,0.838l0.885,5.239l3.984,0.455l-4.343-21.797  L175.31,350.896z M172.917,363.792l4.032-9.475l0.06,0.024l1.507,10.12L172.917,363.792z"/>
<polygon fill="#162D4D" points="191.747,352.116 187.871,352.044 187.464,373.243 198.327,373.434 198.387,370.347 191.412,370.204   "/>
<polygon fill="#162D4D" points="205.756,369.964 204.631,351.924 200.767,352.164 202.059,373.291 212.921,372.621 212.706,369.534   "/>
<path fill="#162D4D" d="M237.302,364.582c-4.067,0.909-8.159-1.077-9.714-8.039c-1.531-6.938,1.34-10.479,5.407-11.365  c2.488-0.574,4.283,0.048,5.407,0.312l-0.718-4.45c-1.101-0.168-3.493-0.407-6.197,0.191c-7.991,1.771-10.838,8.661-9.116,16.484  c1.747,7.824,7.25,12.849,15.384,11.03c2.417-0.526,4.713-1.483,5.575-2.226l-1.268-4.45  C241.13,363.122,239.694,364.055,237.302,364.582z"/>
<path fill="#162D4D" d="M249.025,342.498c-4.115,1.508-6.795,5.958-4.187,13.111c2.608,7.154,7.513,8.853,11.652,7.346  c4.139-1.508,6.795-5.958,4.187-13.111C258.093,342.689,253.188,341.014,249.025,342.498z M255.461,360.155  c-2.297,0.861-4.881-0.454-6.843-5.909c-2.01-5.479-0.861-8.111,1.436-8.948c2.321-0.861,4.881,0.454,6.867,5.934  C258.931,356.686,257.782,359.318,255.461,360.155z"/>
<polygon fill="#162D4D" points="270.104,333.406 277.641,348.216 277.593,348.24 263.788,336.612 259.672,338.694 269.267,357.571   272.401,355.992 264.936,341.278 264.984,341.253 278.717,352.786 282.856,350.68 273.238,331.803 "/>
<polygon fill="#162D4D" points="290.01,331.564 284.555,335.105 281.421,330.272 287.139,326.563 285.464,323.956 276.468,329.793   287.977,347.546 291.23,345.441 286.23,337.712 291.709,334.171 "/>
<polygon fill="#162D4D" points="301.83,334.244 297.978,329.315 303.385,325.104 301.471,322.664 296.087,326.875 292.594,322.424   298.313,317.974 296.398,315.534 287.642,322.376 300.681,339.077 309.677,332.018 307.787,329.578 "/>
<path fill="#162D4D" d="M302.882,309.648l-3.996,3.852l14.714,15.217l3.972-3.828c4.235-4.091,4.881-9.522-0.048-14.643  C312.644,305.198,307.62,305.054,302.882,309.648z M315.252,322.974l-0.933,0.909l-10.551-10.934l0.909-0.934  c3.158-3.015,6.627-2.249,9.857,1.077C317.764,316.443,318.41,319.936,315.252,322.974z"/>
<polygon fill="#162D4D" points="328.435,309.001 323.65,304.982 328.052,299.743 325.684,297.733 321.281,302.997 316.975,299.36   321.616,293.809 319.248,291.823 312.094,300.34 328.315,313.955 335.661,305.198 333.292,303.211 "/>
<path fill="#162D4D" d="M335.015,287.995l-0.072-0.071c1.029-2.153,0.479-4.618-1.794-6.197c-3.206-2.177-6.053-1.053-8.159,2.058  l-3.732,5.455l17.442,11.963l2.201-3.206l-7.489-5.144l0.479-0.718c0.813-1.173,1.818-1.699,3.493-1.173l6.867,2.178l2.321-3.422  l-8.207-2.272C336.354,286.894,335.565,287.397,335.015,287.995z M331.928,289.957l-0.885,1.292l-5.144-3.541l0.885-1.292  c1.22-1.794,2.464-2.512,4.45-1.148C333.005,286.511,333.101,288.258,331.928,289.957z"/>
<path fill="#162D4D" d="M332.742,271.223l15.313,16.245l1.842-3.421l-3.78-3.732l3.421-6.437l5.216,1.101l1.866-3.541l-21.868-3.972  L332.742,271.223z M336.57,270.888l9.977,2.32l-2.68,4.953l-7.321-7.226L336.57,270.888z"/>
<polygon fill="#162D4D" points="345.279,251.723 342.432,250.503 337.24,262.753 340.087,263.973 341.929,259.619 358.558,266.677   360.089,263.088 343.437,256.03 "/>
<polygon fill="#162D4D" points="343.149,248.207 363.151,255.049 364.419,251.388 344.394,244.545 "/>
<path fill="#162D4D" d="M359.874,227.87c-7.393-1.843-11.556,1.292-12.609,5.551s1.148,8.972,8.542,10.814  c7.369,1.842,11.532-1.292,12.585-5.551C369.444,234.401,367.243,229.688,359.874,227.87z M365.52,237.966  c-0.598,2.368-3.11,3.78-8.757,2.368c-5.646-1.388-7.202-3.804-6.604-6.196c0.574-2.369,3.086-3.78,8.733-2.369  C364.563,233.157,366.094,235.574,365.52,237.966z"/>
<polygon fill="#162D4D" points="372.363,214.567 372.937,209.949 351.906,207.377 351.476,210.882 367.984,212.892 367.96,212.963   350.614,217.917 350.064,222.486 371.071,225.07 371.501,221.577 355.112,219.567 355.136,219.519 "/>
<polygon fill="#FFFFFF" points="170.316,28.203 165.973,19.745 164.598,29.171 155.063,30.798 163.832,35.249 162.36,44.938   169.072,37.988 177.709,42.331 173.163,33.669 179.886,26.576 "/>
<polygon fill="#FFFFFF" points="130.312,38.909 121.663,43.324 115,36.553 116.495,45.956 107.87,50.346 117.56,51.997   119.055,61.675 123.385,53.038 132.932,54.604 126.017,47.69 "/>
<polygon fill="#FFFFFF" points="86.683,65.473 79.745,72.256 71.359,67.782 75.605,76.312 68.679,83.083 78.417,81.754   82.735,90.559 84.303,81.025 93.861,79.673 85.188,75.139 "/>
<polygon fill="#FFFFFF" points="54.407,113.492 52.96,103.826 48.354,112.379 39.011,110.585 45.603,117.476 41.021,125.981   49.921,121.83 56.645,128.948 55.305,119.378 64.038,115.227 "/>
<polygon fill="#FFFFFF" points="36.463,159.256 32.192,150.463 30.35,159.986 20.887,161.074 29.237,165.68 27.395,175.179   34.657,168.563 43.21,173.336 39.071,164.604 46.177,158.048 "/>
<polygon fill="#FFFFFF" points="370.257,161.074 360.783,159.962 358.917,150.463 354.682,159.328 344.968,158.12 352.098,164.663   347.982,173.408 356.524,168.635 363.797,175.179 361.907,165.644 "/>
<polygon fill="#FFFFFF" points="345.518,117.404 352.122,110.561 342.743,112.308 338.125,103.802 336.737,113.54 327.095,115.274   335.852,119.39 334.536,128.96 341.259,121.854 350.136,125.934 "/>
<polygon fill="#FFFFFF" points="319.75,67.758 311.328,72.22 304.39,65.461 305.969,75.175 297.284,79.709 306.854,81.025   308.457,90.571 312.764,81.767 322.454,83.022 315.491,76.251 "/>
<polygon fill="#FFFFFF" points="276.133,36.541 269.41,43.312 260.797,38.945 265.175,47.738 258.237,54.652 267.759,53.062   272.138,61.687 273.621,52.021 283.263,50.31 274.602,45.932 "/>
<polygon fill="#FFFFFF" points="226.511,29.171 225.195,19.745 220.793,28.214 211.247,26.611 218.065,33.706 213.496,42.378   222.133,38 228.856,44.938 227.396,35.272 236.082,30.774 "/>
<path fill="#008035" d="M286.302,195.569c-21.366-11.455-51.249-18.776-84.547-19.601V109.46c0,0,2.889,5.628,2.984,7.686  c0.167-1.747,0.766-5.85,0.359-6.849c-0.556-1.399,3.9,6.113,3.9,11.389c0,5.3,1.938-2.5,1.675-4.438  c-0.287-1.95,4.737,11.951,4.737,13.901c0,1.95,1.388-3.9,1.388-5.85c0-1.938,3.326,7.8,3.326,10.013  c0,2.225,2.512-5.551,1.938-6.951c-0.55-1.375,4.474,15.025,3.9,18.076c-0.55,3.063,1.938-5.551,1.388-8.35  c-0.55-2.775,3.063,10.862,2.799,12.812c-0.287,1.926,1.388-4.187,1.101-5.299c-0.287-1.101,2.225,4.175,2.225,11.125  c0,6.962,1.125-4.713,1.125-6.664c0-1.95,3.613,1.101,4.713,3.601c1.125,2.512-2.775-8.613-4.163-9.451  c-1.148-0.682,3.182,0.532,5.048,1.597c-1.268-1.322-3.708-4.139-5.048-5.485c-1.962-1.95,2.225-2.787,3.613-0.837  c1.388,1.95-3.613-6.388-5-6.675c-1.412-0.275,1.101-2.5,1.938-1.95c0.837,0.562-4.45-5.276-6.962-6.113  c-2.488-0.825,0.837-1.663,2.225-1.112s-11.676-9.726-13.351-10.288c-1.651-0.55,1.125-2.5,1.962-1.95  c0.837,0.563-5.575-3.876-5.575-3.876s2.249-1.687,3.063-0.574c0.837,1.125,4.737,3.625,6.125,5.85s-1.388-6.962-2.512-8.063  c-1.101-1.113,7.513,5.563,8.063,7.226c0.574,1.675,1.125-5.838,0.287-6.951c-0.837-1.112,7.513,8.063,8.063,10.288  c0.574,2.225,1.388-5.563,0.574-6.95c-0.861-1.4,6.938,9.451,6.938,11.125c0,1.663,1.388-7.513,0.287-9.176  c-1.125-1.663,8.876,8.613,9.164,10.276c0.263,1.663-0.55-8.338-1.388-9.439c-0.837-1.125,8.613,8.338,9.738,10.551  c1.101,2.237-2.225-7.776-3.613-8.888c-1.388-1.095,11.939,6.645,13.207,8.23c-1.005-1.334-6.46-9.146-7.656-9.63  c-1.388-0.55,2.225-2.213,3.326-1.663c1.125,0.562-5-2.788-7.226-2.788s0-2.488,0.837-2.488s-6.604-1.723-8.063-1.399  c-2.512,0.562-4.713-0.275-3.9-0.55c0.67-0.233,3.9-2.387,5.981-2.751c-3.565-0.437-13.351-2.261-14.858-2.261  c-1.962,0-3.9,0-2.512-1.101c1.388-1.112,5.551-1.663,5.551-1.663s-12.776-1.4-13.614-1.125c-0.837,0.275-1.125-3.625-0.287-3.888  c0.837-0.287-3.613-0.562-4.45,0.263c-0.837,0.85-1.651-2.213-0.287-2.5c1.412-0.275,6.125,1.675,7.25,2.787  c1.101,1.113,2.512,1.4,2.512,1.4s-3.493-6.406-5.024-7.034c1.914,0.777,11.724,3.583,12.489,4.779  c-0.67-1.035-5.144-8.081-6.101-8.32c-1.101-0.287,13.638,5.275,14.738,6.95c1.125,1.675-5-8.063-5.814-8.338  c-0.837-0.275,16.102,5.275,17.227,6.663c1.125,1.4-3.063-5.826-4.163-6.113c-1.125-0.275,7.489,1.663,9.714,2.5  c1.483,0.563-7.489-7.5-14.451-8.338c-11.173-1.34-17.514-0.837-24.739,0.562c-0.335,0.06-1.555,0.598-3.11,1.352  c-1.938-1.137-5.359-3.015-6.915-3.015c-2.201,0,8.637-2.512,12.513-2.512c3.445,0-3.876-2.225-6.938-2.788  c-3.063-0.55,8.326-1.95,11.676-1.663c3.326,0.275-6.388-3.063-8.35-4.45c-1.938-1.4,11.125-2.225,12.8-1.663  c1.675,0.55-4.45-2.5-6.388-2.775c-1.962-0.287,3.326-1.399,5.838-1.399c2.488,0-1.388-1.95-2.512-1.95s3.613-2.213,4.45-1.95  c0.837,0.287-17.514-2.213-26.127,7.788c-8.637,10.013-14.481,17.526-14.481,17.526s-2.225-0.55-1.125-3.613  c0.407-1.077,3.218-6.962,3.218-8.063c0-1.113-2.644,2.5-3.481,2.775c-0.837,0.275,0.132-5.013,1.244-5.838  c1.125-0.837,2.919-6.962,2.919-6.962s-2.775,2.512-4.163,2.799c-1.399,0.263,1.388-3.9,1.388-3.9l1.938-5.013  c0,0-3.063,1.95-3.888,2.788c-0.837,0.825-0.55-3.338-0.275-4.163c0.275-0.837,1.938-5.013,1.938-5.013s-1.938,1.663-2.763,2.5  c-0.85,0.837-0.85-2.5-0.85-2.5l-1.459-2.746l-1.459,2.746c0,0,0,3.338-0.825,2.5c-0.837-0.837-2.788-2.5-2.788-2.5  s1.663,4.175,1.95,5.013c0.287,0.825,0.55,4.988-0.287,4.163c-0.826-0.837-3.888-2.788-3.888-2.788l1.95,5.013  c0,0,2.775,4.163,1.388,3.9c-1.388-0.287-4.175-2.799-4.175-2.799s2.237,6.412,3.35,7.237c1.113,0.837,1.663,5.838,0.826,5.563  c-0.826-0.275-3.338-4.438-3.338-3.338c0,1.113,2.668,7.549,3.063,8.625c1.113,3.063-1.112,3.613-1.112,3.613  s-5.838-7.513-14.463-17.526c-8.625-10.001-26.976-7.5-26.139-7.788c0.837-0.263,5.563,1.95,4.45,1.95c-1.101,0-5,1.95-2.5,1.95  c2.5,0,7.788,1.112,5.838,1.399c-1.938,0.275-8.051,3.326-6.388,2.775c1.663-0.562,14.738,0.263,12.789,1.663  c-1.95,1.388-11.676,4.725-8.338,4.45c3.326-0.287,14.727,1.112,11.664,1.663c-3.051,0.563-10.384,2.788-6.938,2.788  c3.888,0,14.738,2.512,12.501,2.512c-1.555,0-4.958,1.878-6.896,3.015c-1.573-0.754-2.781-1.292-3.104-1.352  c-7.226-1.399-13.59-1.902-24.751-0.562c-6.951,0.837-15.935,8.9-14.451,8.338c2.213-0.837,10.838-2.775,9.726-2.5  c-1.112,0.287-5.275,7.513-4.163,6.113c1.101-1.388,18.064-6.938,17.239-6.663c-0.837,0.275-6.962,10.013-5.85,8.338  c1.113-1.675,15.851-7.237,14.738-6.95c-0.957,0.239-5.419,7.285-6.089,8.32c0.783-1.196,10.605-4.007,12.501-4.785  c-1.531,0.622-5.012,7.041-5.012,7.041s1.375-0.287,2.5-1.4c1.113-1.112,5.838-3.063,7.226-2.787c1.4,0.287,0.563,3.35-0.275,2.5  c-0.837-0.825-5.288-0.55-4.45-0.263c0.825,0.263,0.562,4.163-0.275,3.888c-0.837-0.275-13.638,1.125-13.638,1.125  s4.175,0.55,5.563,1.663c1.399,1.101-0.55,1.101-2.5,1.101c-1.513,0-11.305,1.824-14.87,2.261c2.082,0.365,5.293,2.518,5.981,2.751  c0.825,0.275-1.4,1.112-3.9,0.55c-1.459-0.323-8.889,1.399-8.063,1.399c0.837,0,3.05,2.488,0.837,2.488  c-2.225,0-8.338,3.35-7.226,2.788c1.101-0.55,4.713,1.112,3.326,1.663c-1.19,0.484-6.634,8.26-7.656,9.618  c1.298-1.609,14.583-9.313,13.219-8.218c-1.388,1.112-4.725,11.125-3.613,8.888c1.113-2.213,10.563-11.676,9.726-10.551  c-0.826,1.101-1.663,11.102-1.376,9.439c0.263-1.663,10.288-11.939,9.176-10.276c-1.125,1.663,0.275,10.838,0.275,9.176  c0-1.675,7.776-12.525,6.951-11.125c-0.837,1.388,0,9.175,0.55,6.95c0.562-2.225,8.9-11.4,8.075-10.288  c-0.837,1.113-0.287,8.625,0.263,6.951c0.563-1.663,9.176-8.338,8.075-7.226c-1.113,1.101-3.9,10.288-2.512,8.063  c1.399-2.225,5.288-4.726,6.125-5.85c0.837-1.112,3.05,0.574,3.05,0.574s-6.388,4.438-5.563,3.876c0.849-0.55,3.625,1.4,1.95,1.95  c-1.663,0.562-14.738,10.838-13.338,10.288c1.388-0.55,4.725,0.287,2.213,1.112c-2.5,0.837-7.776,6.675-6.938,6.113  c0.826-0.55,3.326,1.675,1.938,1.95c-1.388,0.287-6.388,8.625-5,6.675c1.388-1.95,5.551-1.112,3.613,0.837  c-1.346,1.346-3.804,4.175-5.06,5.497c1.842-1.071,6.214-2.297,5.06-1.609c-1.388,0.837-5.288,11.963-4.175,9.451  c1.125-2.5,4.737-5.551,4.737-3.601c0,1.95,1.112,13.626,1.112,6.664c0-6.951,2.5-12.226,2.213-11.125  c-0.275,1.112,1.399,7.226,1.112,5.299c-0.275-1.95,3.338-15.587,2.788-12.812c-0.563,2.799,1.95,11.413,1.388,8.35  c-0.55-3.051,4.438-19.452,3.888-18.076c-0.55,1.4,1.95,9.176,1.95,6.951c0-2.213,3.35-11.951,3.35-10.013  c0,1.95,1.375,7.8,1.375,5.85c0-1.95,5.013-15.851,4.737-13.901c-0.287,1.938,1.663,9.738,1.663,4.438  c0-5.275,4.45-12.788,3.888-11.389c-0.407,0.999,0.197,5.108,0.371,6.855c0.083-2.058,2.967-7.692,2.967-7.692v66.508  c-33.287,0.825-63.182,8.146-84.542,19.601H286.302z M221.75,78.112c-0.957,0.479-1.938,0.999-2.943,1.519  c-1.22-1.029-3.206-2.614-4.522-2.984C212.467,76.12,220.123,77.071,221.75,78.112z M214.548,81.916  c-1.148,0.628-2.201,1.232-3.182,1.806c-0.67-0.921-1.651-2.171-2.369-2.351C208.041,81.132,212.754,81.312,214.548,81.916z   M205.385,83.322c0.837,0,1.938,0,3.613,1.101c0.263,0.173,0.479,0.227,0.718,0.317c-1.268,0.795-2.297,1.501-2.656,1.92  C205.098,88.884,204.542,83.322,205.385,83.322z M169.4,78.106c1.639-1.035,9.301-1.986,7.483-1.459  c-1.31,0.371-3.308,1.962-4.522,2.997C171.351,79.111,170.352,78.59,169.4,78.106z M176.608,81.916  c1.782-0.604,6.52-0.784,5.551-0.544c-0.706,0.18-1.705,1.43-2.369,2.351C178.81,83.148,177.745,82.544,176.608,81.916z   M184.109,86.659c-0.365-0.418-1.399-1.125-2.674-1.92c0.239-0.09,0.473-0.144,0.724-0.317c1.663-1.101,2.775-1.101,3.613-1.101  S186.047,88.884,184.109,86.659z"/>
<path fill="#162D4D" d="M330.708,195.569c0,74.625-60.508,135.145-135.139,135.145c-74.636,0-135.145-60.521-135.145-135.145  H330.708z"/>
<path fill="#FFFFFF" d="M288.67,195.569H243.81c0,0,0.766,7.142-2.201,15.313c-1.34,3.637-10.288,24.835-14.738,28.16  c0,0,10.743,11.867,15.935,17.801c4.354,4.953,13.279,19.667,14.451,19.644c18.16-0.359,30.027-8.159,35.243-11.867  c2.417-1.723,10.599-13.686,14.81-25.194c4.211-11.532,4.833-18.925,4.833-18.925C308.05,210.5,288.67,195.569,288.67,195.569z"/>
<path fill="#FFFFFF" d="M324.918,222.367h-9.427c0,0-1.842,22.251-20.026,45.603l5.216,6.292  C300.681,274.261,319.367,250.718,324.918,222.367"/>
<path fill="#FFFFFF" d="M102.462,195.575h44.861c0,0-0.766,7.148,2.201,15.307c1.34,3.637,10.288,24.835,14.738,28.16  c0,0-10.743,11.867-15.935,17.801c-4.354,4.953-13.279,19.667-14.451,19.644c-18.16-0.359-30.027-8.159-35.243-11.867  c-2.417-1.723-10.599-13.686-14.81-25.194c-4.211-11.532-4.833-18.925-4.833-18.925C83.083,210.5,102.462,195.575,102.462,195.575z"/>
<path fill="#FFFFFF" d="M66.215,222.367h9.427c0,0,1.842,22.251,20.026,45.603l-5.216,6.292  C90.452,274.261,71.766,250.718,66.215,222.367"/>
<path fill="#FFFFFF" d="M237.517,256.485c-7.106-8.805-13.351-14.116-13.351-14.116c-3.326,2.249-28.597,2.225-28.597,2.225  s-25.277,0.024-28.603-2.225c0,0-6.245,5.312-13.351,14.116c-7.776,9.618-15.935,22.227-15.935,22.227  c-0.766,5.551,12.226,23.734,20.002,28.544c7.8,4.833,25.277,7.775,37.886,7.393c12.615,0.383,30.081-2.56,37.88-7.393  c7.776-4.81,20.768-22.993,20.002-28.544C253.452,278.711,245.293,266.103,237.517,256.485z"/>
<path fill="#FFFFFF" d="M233.45,312.088c0,0-9.283,3.325-16.317,4.809c-8.111,1.723-21.563,1.783-21.563,1.783  s-13.458-0.06-21.569-1.783c-7.034-1.483-16.317-4.809-16.317-4.809l-5.192,7.034c0,0,10.767,4.091,20.026,5.574  c8.972,1.436,16.544,1.818,23.052,1.818s14.074-0.383,23.046-1.818c9.259-1.483,20.026-5.574,20.026-5.574L233.45,312.088z"/>
</svg>